<?xml version="1.0" encoding="utf-8"?>
<!-- Generator: Adobe Illustrator 23.0.6, SVG Export Plug-In . SVG Version: 6.00 Build 0)  -->
<svg version="1.1" id="圖層_1" xmlns="http://www.w3.org/2000/svg" xmlns:xlink="http://www.w3.org/1999/xlink" x="0px" y="0px"
	 viewBox="0 0 283.46 283.46" style="enable-background:new 0 0 283.46 283.46;" xml:space="preserve">
<style type="text/css">
	.st0{fill-rule:evenodd;clip-rule:evenodd;fill:#097AC5;}
</style>
<path class="st0" d="M141.72,4.25C63.46,4.25,0,67.71,0,145.99c0,62.61,40.61,115.74,96.93,134.48c7.09,1.3,9.67-3.08,9.67-6.83
	c0-3.36-0.12-12.28-0.19-24.11c-39.43,8.57-47.74-19-47.74-19c-6.44-16.37-15.74-20.73-15.74-20.73c-12.87-8.79,0.97-8.62,0.97-8.62
	c14.22,1,21.71,14.61,21.71,14.61c12.64,21.66,33.17,15.4,41.25,11.78c1.29-9.16,4.95-15.4,9-18.95
	c-31.47-3.58-64.56-15.74-64.56-70.05c0-15.47,5.52-28.12,14.59-38.03c-1.46-3.59-6.32-18,1.39-37.51c0,0,11.9-3.81,38.98,14.53
	c11.3-3.14,23.43-4.72,35.48-4.77c12.04,0.05,24.16,1.63,35.48,4.77c27.06-18.34,38.94-14.53,38.94-14.53
	c7.73,19.51,2.87,33.92,1.41,37.51c9.08,9.91,14.57,22.56,14.57,38.03c0,54.45-33.14,66.43-64.71,69.94
	c5.09,4.38,9.62,13.03,9.62,26.25c0,18.95-0.17,34.23-0.17,38.88c0,3.79,2.55,8.2,9.75,6.82c56.27-18.78,96.84-71.87,96.84-134.46
	C283.46,67.71,220,4.25,141.72,4.25z"/>
</svg>
